<?xml version="1.0" encoding="utf-8"?>
<!-- Generator: Adobe Illustrator 21.1.0, SVG Export Plug-In . SVG Version: 6.00 Build 0)  -->
<svg version="1.1" id="Layer_1" xmlns="http://www.w3.org/2000/svg" xmlns:xlink="http://www.w3.org/1999/xlink" x="0px" y="0px"
	 viewBox="0 0 541 541" style="enable-background:new 0 0 541 541;" xml:space="preserve">
<style type="text/css">
	.st0{fill:#EEEEEE;}
	.st1{fill:#FF0000;stroke:#FFFFFF;}
	.st2{fill:#FF0000;fill-opacity:0.166;stroke:#FFFFFF;}
	.st3{fill:#FF0000;fill-opacity:0.3846;stroke:#FFFFFF;}
	.st4{fill:#FF0000;fill-opacity:0.2672;stroke:#FFFFFF;}
	.st5{fill:#FF0000;fill-opacity:0.2228;stroke:#FFFFFF;}
	.st6{fill:#FF0000;fill-opacity:0.4674;stroke:#FFFFFF;}
	.st7{fill:#FF0000;fill-opacity:0.5326;stroke:#FFFFFF;}
	.st8{fill:#FF0000;fill-opacity:0.2199;stroke:#FFFFFF;}
	.st9{fill:#FF0000;fill-opacity:0.1991;stroke:#FFFFFF;}
	.st10{fill:#FF0000;fill-opacity:0.4769;stroke:#FFFFFF;}
	.st11{fill:#FF0000;fill-opacity:0.1364;stroke:#FFFFFF;}
	.st12{fill:#FF0000;fill-opacity:0.2025;stroke:#FFFFFF;}
	.st13{fill:#FF0000;fill-opacity:0.4256;stroke:#FFFFFF;}
	.st14{fill:none;stroke:#000000;}
	.st15{font-family:'AGaramondPro-Regular';}
	.st16{font-size:18px;}
	.st17{font-family:'AGaramondPro-Bold';}
	.st18{font-size:24px;}
</style>
<defs  xmlns="http://www.w3.org/1999/xhtml">
	<style  type="text/css">
		<![CDATA[
.tick line { shape-rendering: crispedges; stroke: rgb(0, 0, 0); }
line.minor { stroke: rgb(119, 119, 119); stroke-dasharray: 2, 2; }
path.domain { fill: none; stroke: black; }
.background { fill: rgb(238, 238, 238); }
			
			]]>
	</style>
</defs>
<rect x="136.4" y="136.4" class="st0" width="400" height="400"/>
<g id="adjacencyG" transform="translate(100,100)">
	<rect x="36.4" y="36.4" class="st1" width="100" height="100"/>
	<rect x="136.4" y="36.4" class="st2" width="100" height="100"/>
	<rect x="236.4" y="36.4" class="st3" width="100" height="100"/>
	<rect x="336.4" y="36.4" class="st4" width="100" height="100"/>
	<rect x="36.4" y="136.4" class="st5" width="100" height="100"/>
	<rect x="136.4" y="136.4" class="st1" width="100" height="100"/>
	<rect x="236.4" y="136.4" class="st6" width="100" height="100"/>
	<rect x="336.4" y="136.4" class="st7" width="100" height="100"/>
	<rect x="36.4" y="236.4" class="st8" width="100" height="100"/>
	<rect x="136.4" y="236.4" class="st9" width="100" height="100"/>
	<rect x="236.4" y="236.4" class="st1" width="100" height="100"/>
	<rect x="336.4" y="236.4" class="st10" width="100" height="100"/>
	<rect x="36.4" y="336.4" class="st11" width="100" height="100"/>
	<rect x="136.4" y="336.4" class="st12" width="100" height="100"/>
	<rect x="236.4" y="336.4" class="st13" width="100" height="100"/>
	<rect x="336.4" y="336.4" class="st1" width="100" height="100"/>
	<g>
		<g transform="translate(50,0)">
			<line class="st14" x1="36.4" y1="36.4" x2="36.4" y2="32.4"/>
			<text transform="matrix(6.123234e-17 1 -1 6.123234e-17 33.4277 -40.1421)" class="st15 st16">professor</text>
		</g>
		<g transform="translate(150,0)">
			<line class="st14" x1="36.4" y1="36.4" x2="36.4" y2="32.4"/>
			<text transform="matrix(6.123234e-17 1 -1 6.123234e-17 33.4277 -66.7993)" class="st15 st16">entrepreneur</text>
		</g>
		<g transform="translate(250,0)">
			<line class="st14" x1="36.4" y1="36.4" x2="36.4" y2="32.4"/>
			<text transform="matrix(6.123234e-17 1 -1 6.123234e-17 33.4277 -33.3022)" class="st15 st16">scientist</text>
		</g>
		<g transform="translate(350,0)">
			<line class="st14" x1="36.4" y1="36.4" x2="36.4" y2="32.4"/>
			<text transform="matrix(6.123234e-17 1 -1 6.123234e-17 33.4277 -36.5063)" class="st15 st16">engineer</text>
		</g>
		<path class="st14" d="M36.4,32.4v4h400v-4"/>
	</g>
	<g>
		<g transform="translate(50,0)">
			<line class="st14" x1="-13.1" y1="84.9" x2="-17.1" y2="84.9"/>
			<text transform="matrix(1 0 0 1 -89.708 87.9285)" class="st15 st16">professor</text>
		</g>
		<g transform="translate(150,0)">
			<line class="st14" x1="-113.1" y1="183.4" x2="-117.1" y2="183.4"/>
			<text transform="matrix(1 0 0 1 -216.3652 186.4282)" class="st15 st16">entrepreneur</text>
		</g>
		<g transform="translate(250,0)">
			<line class="st14" x1="-213.1" y1="284.9" x2="-217.1" y2="284.9"/>
			<text transform="matrix(1 0 0 1 -282.8682 287.9285)" class="st15 st16">scientist</text>
		</g>
		<g transform="translate(350,0)">
			<line class="st14" x1="-313.1" y1="384.9" x2="-317.1" y2="384.9"/>
			<text transform="matrix(1 0 0 1 -386.0723 387.9285)" class="st15 st16">engineer</text>
		</g>
		<path class="st14" d="M32.9,436.4h4v-400h-4"/>
	</g>
	<text transform="matrix(1 0 0 1 128.4282 -78)" class="st17 st18">...also held this career</text>
	<text transform="matrix(6.123234e-17 -1 1 6.123234e-17 -77.5068 370.4277)" class="st17 st18">% of people who held this career...</text>
</g>
<text transform="matrix(1 0 0 1 269.8325 194.9282)" class="st15 st16">17%</text>
<text transform="matrix(1 0 0 1 369.8325 194.9282)" class="st15 st16">38%</text>
<text transform="matrix(1 0 0 1 469.833 194.9282)" class="st15 st16">27%</text>
<text transform="matrix(1 0 0 1 169.8325 291.9282)" class="st15 st16">22%</text>
<text transform="matrix(1 0 0 1 369.8325 291.9282)" class="st15 st16">47%</text>
<text transform="matrix(1 0 0 1 469.833 291.9282)" class="st15 st16">53%</text>
<text transform="matrix(1 0 0 1 169.8325 392)" class="st15 st16">22%</text>
<text transform="matrix(1 0 0 1 266.8325 392)" class="st15 st16">20%</text>
<text transform="matrix(1 0 0 1 469.833 392)" class="st15 st16">48%</text>
<text transform="matrix(1 0 0 1 169.8325 493)" class="st15 st16">14%</text>
<text transform="matrix(1 0 0 1 266.8325 493)" class="st15 st16">20%</text>
<text transform="matrix(1 0 0 1 369.8325 493)" class="st15 st16">43%</text>
</svg>
