<?xml version="1.0" standalone="no"?><!DOCTYPE svg PUBLIC "-//W3C//DTD SVG 1.1//EN" "http://www.w3.org/Graphics/SVG/1.1/DTD/svg11.dtd"><svg style="width:600px;height:600px;border:1px lightgray solid;" version="1.1" xmlns="http://www.w3.org/2000/svg" xmlns:xlink="http://www.w3.org/1999/xlink"><defs xmlns="http://www.w3.org/1999/xhtml"><style type="text/css"><![CDATA[
.tick line { shape-rendering: crispedges; stroke: rgb(0, 0, 0); }
line.minor { stroke: rgb(119, 119, 119); stroke-dasharray: 2, 2; }
path.domain { fill: none; stroke: black; }
.background { fill: rgb(238, 238, 238); }]]></style></defs><rect class="background" width="400" height="400" transform="translate(100,100)"/><g transform="translate(100,100)" id="adjacencyG"><rect width="100" height="100" x="0" y="0" style="stroke: white; stroke-width: 1px; fill: red; fill-opacity: 1;"/><rect width="100" height="100" x="100" y="0" style="stroke: white; stroke-width: 1px; fill: red; fill-opacity: 0.165992;"/><rect width="100" height="100" x="200" y="0" style="stroke: white; stroke-width: 1px; fill: red; fill-opacity: 0.384615;"/><rect width="100" height="100" x="300" y="0" style="stroke: white; stroke-width: 1px; fill: red; fill-opacity: 0.267206;"/><rect width="100" height="100" x="0" y="100" style="stroke: white; stroke-width: 1px; fill: red; fill-opacity: 0.222826;"/><rect width="100" height="100" x="100" y="100" style="stroke: white; stroke-width: 1px; fill: red; fill-opacity: 1;"/><rect width="100" height="100" x="200" y="100" style="stroke: white; stroke-width: 1px; fill: red; fill-opacity: 0.467391;"/><rect width="100" height="100" x="300" y="100" style="stroke: white; stroke-width: 1px; fill: red; fill-opacity: 0.532609;"/><rect width="100" height="100" x="0" y="200" style="stroke: white; stroke-width: 1px; fill: red; fill-opacity: 0.219907;"/><rect width="100" height="100" x="100" y="200" style="stroke: white; stroke-width: 1px; fill: red; fill-opacity: 0.199074;"/><rect width="100" height="100" x="200" y="200" style="stroke: white; stroke-width: 1px; fill: red; fill-opacity: 1;"/><rect width="100" height="100" x="300" y="200" style="stroke: white; stroke-width: 1px; fill: red; fill-opacity: 0.476852;"/><rect width="100" height="100" x="0" y="300" style="stroke: white; stroke-width: 1px; fill: red; fill-opacity: 0.136364;"/><rect width="100" height="100" x="100" y="300" style="stroke: white; stroke-width: 1px; fill: red; fill-opacity: 0.202479;"/><rect width="100" height="100" x="200" y="300" style="stroke: white; stroke-width: 1px; fill: red; fill-opacity: 0.42562;"/><rect width="100" height="100" x="300" y="300" style="stroke: white; stroke-width: 1px; fill: red; fill-opacity: 1;"/><g><g class="tick" style="opacity: 1;" transform="translate(50,0)"><line y2="-4" x2="0"/><text dy="0em" style="text-anchor: end;" y="-7" x="0" transform="translate(-10,-10) rotate(90)">professor</text></g><g class="tick" style="opacity: 1;" transform="translate(150,0)"><line y2="-4" x2="0"/><text dy="0em" style="text-anchor: end;" y="-7" x="0" transform="translate(-10,-10) rotate(90)">entrepreneur</text></g><g class="tick" style="opacity: 1;" transform="translate(250,0)"><line y2="-4" x2="0"/><text dy="0em" style="text-anchor: end;" y="-7" x="0" transform="translate(-10,-10) rotate(90)">scientist</text></g><g class="tick" style="opacity: 1;" transform="translate(350,0)"><line y2="-4" x2="0"/><text dy="0em" style="text-anchor: end;" y="-7" x="0" transform="translate(-10,-10) rotate(90)">engineer</text></g><path class="domain" d="M0,-4V0H400V-4"/></g><g><g class="tick" style="opacity: 1;" transform="translate(0,50)"><line x2="-4" y2="0"/><text dy=".32em" style="text-anchor: end;" x="-7" y="0">professor</text></g><g class="tick" style="opacity: 1;" transform="translate(0,150)"><line x2="-4" y2="0"/><text dy=".32em" style="text-anchor: end;" x="-7" y="0">entrepreneur</text></g><g class="tick" style="opacity: 1;" transform="translate(0,250)"><line x2="-4" y2="0"/><text dy=".32em" style="text-anchor: end;" x="-7" y="0">scientist</text></g><g class="tick" style="opacity: 1;" transform="translate(0,350)"><line x2="-4" y2="0"/><text dy=".32em" style="text-anchor: end;" x="-7" y="0">engineer</text></g><path class="domain" d="M-4,0H0V400H-4"/></g></g></svg>